# This file uses centimeters as units for non-parametric coordinates.

g default
v 294.812927 0.022240 -58.014725
v 294.812927 229.298950 -58.014725
v -294.812927 0.022240 -58.014725
v -294.812927 229.298950 -58.014725
v -294.812927 0.022240 -254.556671
v -294.812927 229.298950 -254.556671
v 294.812927 0.022240 -254.556671
v 294.812927 229.298950 -254.556671
vt 0.271107 0.682541
vt 0.495699 0.682541
vt 0.495699 0.944540
vt 0.271107 0.944540
vt 0.771501 0.682541
vt 0.996094 0.682541
vt 0.996094 0.944540
vt 0.771501 0.944540
vt 0.538308 0.003906
vt 0.762900 0.003906
vt 0.762900 0.677683
vt 0.538308 0.677683
vt 0.771501 0.003906
vt 0.996094 0.003906
vt 0.996094 0.677683
vt 0.771501 0.677683
vt 0.265905 0.677683
vt 0.003906 0.677683
vt 0.003906 0.003906
vt 0.265905 0.003906
vt 0.533106 0.003906
vt 0.533106 0.677683
vt 0.271107 0.677683
vt 0.271107 0.003906
vn 0.000000 0.000000 1.000000
vn 0.000000 0.000000 1.000000
vn 0.000000 0.000000 1.000000
vn 0.000000 0.000000 1.000000
vn -1.000000 0.000000 0.000000
vn -1.000000 0.000000 0.000000
vn -1.000000 0.000000 0.000000
vn -1.000000 0.000000 0.000000
vn 0.000000 0.000000 -1.000000
vn 0.000000 0.000000 -1.000000
vn 0.000000 0.000000 -1.000000
vn 0.000000 0.000000 -1.000000
vn 1.000000 0.000000 0.000000
vn 1.000000 0.000000 0.000000
vn 1.000000 0.000000 0.000000
vn 1.000000 0.000000 0.000000
vn 0.000000 1.000000 0.000000
vn 0.000000 1.000000 0.000000
vn 0.000000 1.000000 0.000000
vn 0.000000 1.000000 0.000000
vn 0.000000 -1.000000 0.000000
vn 0.000000 -1.000000 0.000000
vn 0.000000 -1.000000 0.000000
vn 0.000000 -1.000000 0.000000
s off
g Ground
f 4/17/1 3/18/2 1/19/3 2/20/4
f 5/1/5 3/2/6 4/3/7 6/4/8
f 7/21/9 5/22/10 6/23/11 8/24/12
f 1/5/13 7/6/14 8/7/15 2/8/16
f 2/9/17 8/10/18 6/11/19 4/12/20
f 7/13/21 1/14/22 3/15/23 5/16/24
